# xmcd CD database file generated by Grip 2.5
# 
# Track frame offsets:
#       150
#       14722
#       25590
#       37492
#       53640
#       68482
#       87212
#       95315
#       115407
#       132875
#       145437
#       168070
# 
# Disc length: 2492 seconds
# 
# Revision: 3
# Processed by: cddbd v1.4b41PL1 Copyright (c) Steve Scherf et al.
# Submitted via: Grip 2.5
# 
DISCID=9d09ba0c
DTITLE=The Flying Burrito Brothers - Live
DYEAR=1900
DGENRE=
TTITLE0=Streets of Baltimore
TTITLE1=Cash on the barrelhead
TTITLE2=Help is on its way
TTITLE3=Roll on brother
TTITLE4=Come a little closer
TTITLE5=Star of the show
TTITLE6=Spittin' image
TTITLE7=Sin city
TTITLE8=Christine's tune
TTITLE9=Foggy mountain breakdown
TTITLE10=Sitting in a 747
TTITLE11=Mistery train
EXTD=
EXTT0=
EXTT1=
EXTT2=
EXTT3=
EXTT4=
EXTT5=
EXTT6=
EXTT7=
EXTT8=
EXTT9=
EXTT10=
EXTT11=
PLAYORDER=
